# xmcd
#
# Track frame offsets:
#	150
#	17206
#	27270
#	48394
#	59946
#	78896
#	101512
#	115294
#	133342
#
# Disc length: 1889 seconds
#
# Revision: 0
# Processed by: cddbd v1.5.2PL0 Copyright (c) Steve Scherf et al.
# Submitted via: EZCDAudioConverter 2.8.0.1
#
DISCID=7c075f09
DTITLE=Crows - Caw Caw
DYEAR=2015
DGENRE=blues
TTITLE0=Perfect Lady
TTITLE1=Mr.Ricewine
TTITLE2=No Money
TTITLE3=Please
TTITLE4=Old Friends
TTITLE5=House
TTITLE6=B-52
TTITLE7=Wonderful Life
TTITLE8=Eyebrows
EXTD=
EXTT0=
EXTT1=
EXTT2=
EXTT3=
EXTT4=
EXTT5=
EXTT6=
EXTT7=
EXTT8=
PLAYORDER=
